<svg version="1.1" id="Layer_1" xmlns="http://www.w3.org/2000/svg" x="0" y="0" viewBox="0 0 500 500" style="enable-background:new 0 0 500 500" xml:space="preserve"><style>.st0{fill:#fddf7f}</style><path d="M431.504 386.13c-15.867-16.604-43.901-28.407-76.726-30.925a23.708 23.708 0 0 1 1.961 9.463v3.416c0 13.143-10.654 23.797-23.797 23.797H167.057c-13.142 0-23.797-10.654-23.797-23.797v-3.416c0-3.364.702-6.563 1.961-9.463-32.825 2.518-60.859 14.32-76.726 30.925 13.592 14.223 36.11 24.922 62.92 29.283l.002-.003c-13.889 14.57-17.33 31.791-10.329 47.679 26.806 4.332 55.909 2.063 80.293-6.812 7.022 16.507 24.835 30.388 48.618 38.723 23.783-8.335 41.595-22.216 48.617-38.723 24.384 8.875 53.487 11.144 80.293 6.812 7-15.887 3.56-33.107-10.326-47.676 26.81-4.361 49.33-15.06 62.921-29.283z" style="fill:#83e1e5"/><circle class="st0" cx="250" cy="190.528" r="42.169"/><path d="M302.667 104.823 250 52.179l-52.667 52.643a53.661 53.661 0 0 0-15.725 37.951v80.525c0 18.025 3.61 35.868 10.616 52.476a135.013 135.013 0 0 1 10.616 52.476v12.62h94.32v-12.62c0-18.025 3.609-35.868 10.616-52.476a135.013 135.013 0 0 0 10.616-52.476v-80.525a53.66 53.66 0 0 0-15.725-37.95zM250 232.697c-23.289 0-42.169-18.88-42.169-42.169v-41.326a53.654 53.654 0 0 1 9.215-30.067L250 70.423l32.954 48.712a53.662 53.662 0 0 1 9.215 30.067v41.327c0 23.288-18.88 42.168-42.169 42.168z" style="fill:#ecf4f7"/><path class="st0" d="M302.667 104.823 250 52.179l-52.667 52.643 19.713 14.312L250 70.423l32.954 48.712 19.713-14.312z"/><path d="M332.942 391.881H167.058c-13.143 0-23.797-10.654-23.797-23.797v-3.416c0-13.143 10.654-23.797 23.797-23.797h165.884c13.143 0 23.797 10.654 23.797 23.797v3.416c0 13.143-10.654 23.797-23.797 23.797z" style="fill:#aab1ba"/><path class="st0" d="M219.352 340.871h61.296v51.009h-61.296z"/><path d="M140.881 292.353a5 5 0 0 1 5-5h5.975v-5.975a5 5 0 1 1 10 0v5.975h5.975a5 5 0 1 1 0 10h-5.975v5.974a5 5 0 1 1-10 0v-5.974h-5.975a5 5 0 0 1-5-5zm191.289 5h5.975v5.974a5 5 0 1 0 10 0v-5.974h5.975a5 5 0 1 0 0-10h-5.975v-5.975a5 5 0 1 0-10 0v5.975h-5.975a5 5 0 1 0 0 10zm-193.909 70.731v-3.416c0-15.879 12.918-28.797 28.797-28.797h165.885c15.879 0 28.797 12.918 28.797 28.797v3.416c0 15.878-12.918 28.797-28.797 28.797H167.058c-15.879 0-28.797-12.918-28.797-28.797zm194.681-22.213h-47.295v31.807a5 5 0 1 1-10 0v-6.302h-51.295v15.505h108.59c10.364 0 18.797-8.432 18.797-18.797v-3.416c0-10.364-8.432-18.797-18.797-18.797zm-184.681 22.213c0 10.365 8.433 18.797 18.797 18.797h47.295v-32.184a5 5 0 1 1 10 0v6.68h51.295v-15.505h-108.59c-10.364 0-18.797 8.432-18.797 18.797v3.415zm286.858 14.591c-13.562-14.192-34.98-24.766-60.313-29.774a5.004 5.004 0 0 0-5.875 3.935 5.001 5.001 0 0 0 3.936 5.875c21.164 4.184 39.21 12.427 51.45 23.415-12.733 11.395-32.025 19.944-54.034 23.907a77.112 77.112 0 0 0-3.909-3.554l-.086-.071a81.823 81.823 0 0 0-2.052-1.679l-.267-.206a93.003 93.003 0 0 0-1.958-1.497l-.59-.424a82.713 82.713 0 0 0-1.748-1.249 51.123 51.123 0 0 0-.804-.542l-.668-.448c-.325-.22-.649-.439-.988-.658-.839-.543-1.695-1.08-2.569-1.61a5 5 0 1 0-5.183 8.552c.79.479 1.563.964 2.316 1.452.279.181.551.365.822.549l.74.496c.215.143.43.285.642.431.53.367 1.044.741 1.561 1.117l.522.374c.591.438 1.165.88 1.727 1.321l.25.192c.612.485 1.208.974 1.793 1.468l.08.066a65.645 65.645 0 0 1 5.051 4.75c11.618 12.189 15.245 26.196 10.37 39.714-23.741 3.397-48.938 1.443-70.331-5.406 2.258-7.896 2.337-16.488.161-24.703-2.469-9.321-7.875-17.894-15.223-24.14a5 5 0 1 0-6.477 7.619c5.808 4.938 10.081 11.715 12.033 19.083 2.086 7.869 1.559 16.141-1.482 23.291-6.186 14.539-22.18 27.369-44.017 35.369-8.228-3.012-15.661-6.711-22.116-11.007-8.363-5.566-14.759-11.888-19.01-18.792-5.418-8.8-7.025-18.8-4.526-28.158 1.958-7.333 6.221-14.272 12.327-20.066a5.001 5.001 0 0 0 .186-7.069 4.998 4.998 0 0 0-7.068-.185c-7.447 7.067-12.671 15.622-15.106 24.74-2.111 7.906-1.952 16.129.343 24.007-21.4 6.859-46.614 8.816-70.364 5.417-4.876-13.519-1.247-27.527 10.372-39.716a65.243 65.243 0 0 1 5.047-4.746l.088-.072c.582-.492 1.177-.98 1.845-1.508l.187-.144a77.01 77.01 0 0 1 1.729-1.323l.527-.379c.514-.373 1.027-.747 1.561-1.116.209-.145.424-.287.639-.429l.74-.496c.271-.184.543-.367.817-.546.758-.49 1.53-.975 2.32-1.453a5.002 5.002 0 0 0 1.688-6.867 5.001 5.001 0 0 0-6.867-1.687 105.67 105.67 0 0 0-2.577 1.614c-.334.217-.658.436-.983.656l-.668.448c-.271.18-.541.359-.801.54a89.41 89.41 0 0 0-1.748 1.249l-.595.428c-.667.494-1.315.993-2.031 1.553l-.204.157a80.46 80.46 0 0 0-1.99 1.629l-.14.116a77.039 77.039 0 0 0-3.904 3.549c-22.009-3.963-41.302-12.513-54.035-23.907 12.474-11.207 30.914-19.532 52.563-23.643a4.999 4.999 0 0 0 3.979-5.845 5.006 5.006 0 0 0-5.845-3.98c-25.852 4.909-47.691 15.569-61.498 30.017a5 5 0 0 0 0 6.909c13.132 13.742 33.271 23.93 57.292 29.146-10.357 14.395-12.474 30.911-5.659 46.375a4.998 4.998 0 0 0 3.777 2.92c9.031 1.459 18.295 2.178 27.538 2.178 17.705 0 35.315-2.646 50.995-7.765.485.907.989 1.807 1.535 2.695 5.015 8.143 12.411 15.502 21.984 21.874 7.58 5.045 16.329 9.322 26.004 12.712a4.984 4.984 0 0 0 3.306 0c23.277-8.158 41.026-21.588 49.525-37.279 15.679 5.118 33.286 7.763 50.992 7.763 9.241 0 18.509-.719 27.538-2.178a4.997 4.997 0 0 0 3.777-2.92c6.814-15.465 4.699-31.981-5.658-46.376 24.021-5.215 44.159-15.403 57.291-29.146a4.999 4.999 0 0 0 .001-6.909zM187.618 277.719c-7.306-17.315-11.01-35.625-11.01-54.42v-80.525c0-15.674 6.104-30.408 17.189-41.488L245 50.107V28.942a5 5 0 1 1 10 0v21.165l51.201 51.179c11.085 11.081 17.19 25.815 17.19 41.488v80.525c0 18.793-3.704 37.102-11.01 54.42-6.146 14.571-9.552 29.997-10.122 45.85a5 5 0 0 1-9.994-.36c.614-17.07 4.283-33.683 10.903-49.377 6.783-16.081 10.223-33.083 10.223-50.533v-80.525c0-11.578-4.025-22.531-11.398-31.283l-12.354 8.969a58.407 58.407 0 0 1 7.529 28.742v41.229l.001.097c0 26.009-21.16 47.169-47.169 47.169s-47.169-21.16-47.169-47.169v-41.326a58.413 58.413 0 0 1 7.529-28.742l-12.354-8.969c-7.373 8.752-11.398 19.705-11.398 31.284V223.3c0 17.453 3.439 34.454 10.223 50.533 6.62 15.692 10.288 32.305 10.902 49.377a5.001 5.001 0 0 1-4.817 5.177c-2.744.095-5.077-2.058-5.177-4.817-.57-15.856-3.975-31.282-10.121-45.851zM250 227.697c.64 0 1.276-.016 1.909-.048.193-.01.384-.031.577-.044.437-.029.875-.056 1.308-.1.237-.024.471-.061.707-.09.384-.047.769-.088 1.149-.146.326-.05.646-.115.969-.173.286-.052.574-.095.857-.153.371-.076.736-.168 1.103-.255.23-.055.464-.101.693-.16.344-.089.682-.192 1.023-.291.246-.071.496-.135.74-.21.31-.097.613-.207.92-.312.268-.091.54-.176.805-.273.307-.113.608-.239.911-.359.258-.103.519-.198.774-.306.335-.142.663-.298.993-.449.217-.099.437-.192.651-.295.34-.164.672-.341 1.006-.515.198-.103.4-.199.596-.306.33-.179.652-.372.976-.561.193-.112.389-.218.58-.334.315-.192.622-.396.931-.596.191-.124.388-.242.577-.37.306-.207.603-.426.903-.641.184-.132.373-.259.554-.394.292-.218.575-.449.86-.675.181-.144.367-.281.544-.428.288-.237.565-.486.846-.732.167-.146.338-.286.502-.435.28-.254.55-.52.822-.782.156-.15.316-.295.47-.448.257-.257.504-.525.754-.789.159-.168.323-.331.478-.501.242-.266.473-.542.707-.814.153-.178.312-.352.462-.533.231-.28.451-.569.674-.856.143-.183.291-.361.43-.547.217-.291.423-.59.633-.887.134-.19.274-.376.405-.569.198-.293.384-.595.575-.893.13-.205.267-.406.394-.614.183-.301.354-.61.529-.916.122-.213.25-.422.367-.638.167-.307.322-.622.481-.935.113-.223.233-.441.342-.667.148-.307.284-.622.424-.933.107-.238.22-.471.322-.711.128-.303.244-.613.365-.92.101-.256.208-.508.303-.767.111-.303.209-.613.313-.919.091-.268.188-.534.273-.805.096-.308.179-.621.267-.933.079-.276.164-.55.236-.828.08-.308.146-.622.218-.934.066-.287.14-.572.199-.862.063-.305.112-.615.167-.923.054-.302.115-.601.162-.905.046-.302.079-.608.118-.911.041-.315.088-.628.121-.946.031-.299.047-.603.071-.904.026-.327.058-.651.075-.98.016-.299.017-.601.025-.901.009-.34.025-.679.026-1.022v-.06c-.021-20.477-16.686-37.131-37.168-37.131-20.495 0-37.169 16.674-37.169 37.169s16.67 37.166 37.165 37.166zm37.168-66.159v-12.336c0-9.757-2.89-19.185-8.356-27.265L250 79.346l-28.813 42.59a48.484 48.484 0 0 0-8.356 27.265v12.337c8.64-11.054 22.084-18.18 37.169-18.18 15.084.001 28.527 7.127 37.168 18.18zM255 64.247v4.643l29.199 43.162 10.79-7.834L255 64.247zm-10 0-39.989 39.972 10.79 7.833L245 68.89v-4.643zm5-47.91a5 5 0 0 0 5-5V5a5 5 0 1 0-10 0v6.337a5 5 0 0 0 5 5z" style="fill:#1c1d21"/></svg>