<svg xmlns="http://www.w3.org/2000/svg" xml:space="preserve" width="2048" height="2048" style="shape-rendering:geometricPrecision;text-rendering:geometricPrecision;image-rendering:optimizeQuality;fill-rule:evenodd;clip-rule:evenodd"><defs><style>.fil3{fill:#202020;fill-rule:nonzero}</style></defs><g id="Layer_x0020_1"><path d="M1136.6 529.022c3.75 142.304 128.115 161.254 255.246 180.624 162.907 24.82 329.592 50.218 329.592 280.475v514.123H326.566v-909.71c0-169.655 95.183-268.135 220.95-311.914 51.582-17.956 108.32-26.383 165.48-26.496 56.74-.113 113.874 7.937 166.706 22.95 140.942 40.052 253.746 130.282 256.898 249.947z" style="fill:#474747;fill-rule:nonzero"/><path style="fill:#2d2d2d;fill-rule:nonzero" d="M358.565 1440.24H1721.44V1792H326.564v-351.76z"/><path style="fill:#fff;fill-rule:nonzero" d="M1657.43 1472H390.566v256H1657.43z"/><g id="_291827584"><path id="_291829384" class="fil3" d="M500.061 1472.12v137.34h-56.884v-137.34z"/><path id="_291829240" class="fil3" d="M485.84 1602.5v125.38h-28.442V1602.5z"/><path id="_291828736" class="fil3" d="M623.045 1472.12v137.34h-56.884v-137.34z"/><path id="_291828688" class="fil3" d="M608.824 1602.5v125.38h-28.442V1602.5z"/><path id="_291828520" class="fil3" d="M746.031 1472.12v137.34h-56.884v-137.34z"/><path id="_291828376" class="fil3" d="M731.809 1602.5v125.38h-28.442V1602.5z"/><path id="_291828280" class="fil3" d="M869.016 1472.12v137.34h-56.885v-137.34z"/><path id="_291828664" class="fil3" d="M854.794 1602.5v125.38h-28.442V1602.5z"/><path id="_291828544" class="fil3" d="M991.999 1472.12v137.34h-56.884v-137.34z"/><path id="_291828472" class="fil3" d="M977.779 1602.5v125.38h-28.442V1602.5z"/><path id="_291828424" class="fil3" d="M1114.98 1472.12v137.34h-56.88v-137.34z"/><path id="_291828400" class="fil3" d="M1100.76 1602.5v125.38h-28.44V1602.5z"/><path id="_291827440" class="fil3" d="M1237.97 1472.12v137.34h-56.88v-137.34z"/><path id="_291827752" class="fil3" d="M1223.75 1602.5v125.38h-28.44V1602.5z"/><path id="_291828040" class="fil3" d="M1360.95 1472.12v137.34h-56.88v-137.34z"/><path id="_291827968" class="fil3" d="M1346.73 1602.5v125.38h-28.44V1602.5z"/><path id="_291827536" class="fil3" d="M1481.84 1472.12v137.34h-56.89v-137.34z"/><path id="_291827632" class="fil3" d="M1467.62 1602.5v125.38h-28.45V1602.5z"/><path id="_291827512" class="fil3" d="M1604.82 1472.12v137.34h-56.88v-137.34z"/><path id="_291827896" class="fil3" d="M1590.6 1602.5v125.38h-28.44V1602.5z"/></g></g><path style="fill:none" d="M0 0h2048v2048H0z"/></svg>